# xmcd CD database file
#
# Track frame offsets:
#	150
#	29737
#	46437
#	61175
#	89835
#	111309
#	127712
#	139018
#	161154
#	176859
#	191266
#	206693
#	218751
#
# Disc length: 3067 seconds
#
# Revision: 0
# Processed by: cddbd v1.5.2PL0 Copyright (c) Steve Scherf et al.
# Submitted via: CDex 1.51
#
DISCID=c20bf90d
DTITLE=Bradfield - Virtue
DYEAR=2000
DGENRE=New Age
TTITLE0=PATIENCE
TTITLE1=SINCERITY
TTITLE2=HUMILITY
TTITLE3=FIDELITTY
TTITLE4=JOYFULNESS
TTITLE5=COURAGE
TTITLE6=INITIATIVE
TTITLE7=RESILIENCE
TTITLE8=FORGIVENESS
TTITLE9=SELFLESSNESS
TTITLE10=VIGILANCE
TTITLE11=WISDOM
TTITLE12=SERENITY
EXTD=YEAR: 2000
EXTT0=
EXTT1=
EXTT2=
EXTT3=
EXTT4=
EXTT5=
EXTT6=
EXTT7=
EXTT8=
EXTT9=
EXTT10=
EXTT11=
EXTT12=
PLAYORDER=
